<svg width="12" height="12" viewBox="0 0 12 12" fill="none" xmlns="http://www.w3.org/2000/svg">
<path d="M3.75 0.75C3.75 0.542893 3.58211 0.375 3.375 0.375H2.0625C1.13052 0.375 0.375 1.13052 0.375 2.0625V3.375C0.375 3.58211 0.542893 3.75 0.75 3.75C0.957107 3.75 1.125 3.58211 1.125 3.375V2.4375C1.125 1.71263 1.71263 1.125 2.4375 1.125H3.375C3.58211 1.125 3.75 0.957107 3.75 0.75Z" fill="#E6AB39"/>
<path d="M0.75 8.25C0.542893 8.25 0.375 8.41789 0.375 8.625V9.9375C0.375 10.8695 1.13052 11.625 2.0625 11.625H3.375C3.58211 11.625 3.75 11.4571 3.75 11.25C3.75 11.0429 3.58211 10.875 3.375 10.875H2.4375C1.71263 10.875 1.125 10.2874 1.125 9.5625V8.625C1.125 8.41789 0.957107 8.25 0.75 8.25Z" fill="#E6AB39"/>
<path d="M11.25 3.75C11.4571 3.75 11.625 3.58211 11.625 3.375V2.0625C11.625 1.13052 10.8695 0.375 9.9375 0.375H8.625C8.41789 0.375 8.25 0.542893 8.25 0.75C8.25 0.957107 8.41789 1.125 8.625 1.125H9.5625C10.2874 1.125 10.875 1.71263 10.875 2.4375V3.375C10.875 3.58211 11.0429 3.75 11.25 3.75Z" fill="#E6AB39"/>
<path d="M8.25 11.25C8.25 11.4571 8.41789 11.625 8.625 11.625H9.9375C10.8695 11.625 11.625 10.8695 11.625 9.9375V8.625C11.625 8.41789 11.4571 8.25 11.25 8.25C11.0429 8.25 10.875 8.41789 10.875 8.625V9.5625C10.875 10.2874 10.2874 10.875 9.5625 10.875H8.625C8.41789 10.875 8.25 11.0429 8.25 11.25Z" fill="#E6AB39"/>
<path d="M9.20286 3.99959L6.16537 2.29566C6.11407 2.26575 6.05587 2.25 5.99662 2.25C5.93738 2.25 5.87918 2.26575 5.82788 2.29566L2.79039 3.99959C2.73951 4.03004 2.69746 4.07346 2.66843 4.1255C2.63941 4.17753 2.62444 4.23635 2.62502 4.29607V7.70393C2.62512 7.76432 2.64111 7.82359 2.67135 7.87568C2.7016 7.92778 2.74501 7.97082 2.79714 8.00041L5.83463 9.70434C5.88593 9.73425 5.94413 9.75 6.00338 9.75C6.06262 9.75 6.12082 9.73425 6.17212 9.70434L9.20961 8.00041C9.26049 7.96996 9.30254 7.92654 9.33157 7.8745C9.36059 7.82247 9.37556 7.76365 9.37498 7.70393V4.29607C9.37488 4.23568 9.35889 4.17641 9.32864 4.12432C9.2984 4.07222 9.25499 4.02918 9.20286 3.99959Z" fill="#E6AB39"/>
</svg>
