<svg width="11" height="7" viewBox="0 0 11 7" fill="none" xmlns="http://www.w3.org/2000/svg">
<path d="M1.37165 0.665518C1.18692 0.460263 0.870773 0.443623 0.665518 0.628353C0.460263 0.813082 0.443623 1.12923 0.628353 1.33448L1.37165 0.665518ZM5.5 6L5.12835 6.33448C5.22317 6.43984 5.35826 6.5 5.5 6.5C5.64174 6.5 5.77683 6.43984 5.87165 6.33448L5.5 6ZM10.3716 1.33448C10.5564 1.12923 10.5397 0.813082 10.3345 0.628353C10.1292 0.443623 9.81308 0.460263 9.62835 0.665518L10.3716 1.33448ZM0.628353 1.33448L5.12835 6.33448L5.87165 5.66552L1.37165 0.665518L0.628353 1.33448ZM5.87165 6.33448L10.3716 1.33448L9.62835 0.665518L5.12835 5.66552L5.87165 6.33448Z" fill="#433F37"/>
</svg>
