<svg width="32" height="32" viewBox="0 0 32 32" fill="none" xmlns="http://www.w3.org/2000/svg">
<rect width="32" height="32" fill="white"/>
<path d="M10.4831 6.81529C12.2404 6.25003 14.1419 6.45344 15.733 7.35623L15.9964 7.51429L16.2645 7.35535C17.773 6.5013 19.5624 6.27309 21.2463 6.73623L21.512 6.81535C25.1847 7.9978 26.8291 12.008 25.5937 15.8452C24.9743 17.6301 23.9584 19.2485 22.6174 20.5824C20.7927 22.3545 18.7812 23.9194 16.6218 25.2473L16.3926 25.3897C16.1598 25.5344 15.8656 25.5369 15.6304 25.3961L15.3849 25.2491C13.2225 23.9194 11.211 22.3545 9.38004 20.5762C8.04534 19.2485 7.02947 17.6301 6.40482 15.8295C5.17386 12.0057 6.81152 7.99738 10.4831 6.81529ZM15.3746 8.85427C14.0706 7.96289 12.4333 7.72339 10.9315 8.20646C8.08746 9.12212 6.79808 12.278 7.79207 15.3664C8.33877 16.9417 9.23505 18.3696 10.4058 19.5343C12.1537 21.2319 14.0805 22.7308 16.144 23.9998L16.0013 23.9098L16.4691 23.6156C18.1026 22.561 19.641 21.3642 21.0636 20.0421L21.5916 19.5405C22.7687 18.3696 23.665 16.9417 24.2064 15.382C25.2047 12.281 23.9097 9.12284 21.0641 8.20669C19.4873 7.70082 17.766 7.99057 16.436 8.98625C16.1806 9.17742 15.8307 9.18111 15.5714 8.99538L15.3746 8.85427Z" fill="#433F37"/>
<circle cx="24" cy="8" r="4" fill="#E64E39"/>
</svg>
