<svg width="44" height="44" viewBox="0 0 44 44" fill="none" xmlns="http://www.w3.org/2000/svg">
<path d="M38.2072 8.45135C37.2708 7.51453 36.159 6.77137 34.9354 6.26434C33.7117 5.75731 32.4001 5.49634 31.0755 5.49634C29.751 5.49634 28.4394 5.75731 27.2157 6.26434C25.992 6.77137 24.8803 7.51453 23.9439 8.45135L22.0005 10.3947L20.0572 8.45135C18.1658 6.55992 15.6004 5.49732 12.9255 5.49732C10.2506 5.49732 7.68531 6.55992 5.79388 8.45135C3.90244 10.3428 2.83984 12.9081 2.83984 15.583C2.83984 18.2579 3.90244 20.8233 5.79388 22.7147L7.73721 24.658L22.0005 38.9214L36.2639 24.658L38.2072 22.7147C39.144 21.7783 39.8872 20.6665 40.3942 19.4428C40.9012 18.2192 41.1622 16.9076 41.1622 15.583C41.1622 14.2585 40.9012 12.9469 40.3942 11.7232C39.8872 10.4995 39.144 9.38774 38.2072 8.45135Z" fill="#E6AB39" stroke="#E6AB39" stroke-linecap="round" stroke-linejoin="round"/>
</svg>
