<svg id="Capa_1" enable-background="new 0 0 509.653 509.653" height="512" viewBox="0 0 509.653 509.653" width="512" xmlns="http://www.w3.org/2000/svg"><g><g><path d="m509.51 434.482-27.471-244.33c-1.041-9.261-3.806-18.117-8.216-26.321l-22.489-41.868c-1.278-2.397-3.889-3.964-6.608-3.952h-40.25-70.58v-47.511h90.689c6.97 0 12.641 5.666 12.641 12.63v7.213c0 4.142 3.357 7.5 7.5 7.5s7.5-3.358 7.5-7.5v-7.213c0-15.235-12.399-27.63-27.641-27.63h-339.518c-15.241 0-27.641 12.395-27.641 27.63v40.493l-21.596 40.205c-4.411 8.207-7.176 17.063-8.217 26.324l-27.47 244.329c-1.373 10.159 7.336 19.898 17.584 19.669h182.04c8.262 0 15.348-5.617 17.234-13.667l37.825-162.289 37.827 162.298c1.885 8.042 8.971 13.659 17.232 13.659h182.04c10.25.228 18.958-9.512 17.585-19.669zm-190.613-363.982v47.51h-22.341l-1.9-19.893c-.394-4.124-4.055-7.159-8.179-6.753-4.123.394-7.146 4.056-6.753 8.179l1.764 18.467h-26.662-26.662l1.764-18.467c.394-4.123-2.63-7.785-6.753-8.179-4.107-.397-7.785 2.629-8.179 6.753l-1.9 19.893h-22.341v-47.51zm-246.471 12.63c0-6.964 5.671-12.63 12.641-12.63h90.689v47.51h-70.58-32.75zm234.835 353.947-44.935-192.79v-53.691c0-4.142-3.357-7.5-7.5-7.5s-7.5 3.358-7.5 7.5v53.689l-44.933 192.784c-.286 1.226-1.367 2.081-2.627 2.081h-127.626l8.772-67.763c.532-4.108-2.367-7.869-6.475-8.401-4.104-.533-7.869 2.367-8.4 6.475l-9.021 69.689h-39.289c-1.972-.295-2.605-1-2.678-2.992l27.471-244.33c.826-7.352 3.021-14.383 6.524-20.899l20.367-37.918h27.231l-25.868 199.854c-.532 4.108 2.367 7.869 6.475 8.401s7.869-2.367 8.4-6.475l26.119-201.78h99.897l-8.091 84.719c-1.064 9.661 14.125 11.147 14.932 1.426l8.227-86.145h20.594v21.632c0 4.142 3.357 7.5 7.5 7.5s7.5-3.358 7.5-7.5v-21.633h20.594l8.227 86.145c.808 9.727 15.997 8.229 14.932-1.426l-8.091-84.719h99.897l39.628 306.14h-127.628c-1.259 0-2.341-.856-2.625-2.073zm186.675 1.173c-.3.336-.961.9-2.01.9h-39.288l-39.628-306.14h27.231l20.368 37.921c3.502 6.514 5.697 13.545 6.523 20.897l27.471 244.331c.118 1.038-.367 1.756-.667 2.091z"/><path d="m391.081 399.781h-41.182c-4.143 0-7.5 3.358-7.5 7.5s3.357 7.5 7.5 7.5h41.182c4.143 0 7.5-3.358 7.5-7.5s-3.358-7.5-7.5-7.5z"/></g></g></svg>